<?xml version="1.0" encoding="UTF-8"?>
<!DOCTYPE svg PUBLIC "-//W3C//DTD SVG 1.1//EN" "http://www.w3.org/Graphics/SVG/1.1/DTD/svg11.dtd">
<!-- Creator: CorelDRAW -->
<svg xmlns="http://www.w3.org/2000/svg" xml:space="preserve" width="2048px" height="2048px" style="shape-rendering:geometricPrecision; text-rendering:geometricPrecision; image-rendering:optimizeQuality; fill-rule:evenodd; clip-rule:evenodd"
viewBox="0 0 2048 2048"
 xmlns:xlink="http://www.w3.org/1999/xlink">
 <defs>
  <style type="text/css">
   <![CDATA[
    .fil2 {fill:none}
    .fil4 {fill:#E64A19}
    .fil3 {fill:#FF6E40}
    .fil1 {fill:#FFB300}
    .fil0 {fill:#FFD54F}
   ]]>
  </style>
   <clipPath id="id0">
    <path d="M1024 -0.0011811c565.539,0 1024,458.462 1024,1024 0,565.539 -458.462,1024 -1024,1024 -565.539,0 -1024,-458.462 -1024,-1024 0,-565.539 458.462,-1024 1024,-1024z"/>
   </clipPath>
 </defs>
 <g id="Layer_x0020_1">
  <metadata id="CorelCorpID_0Corel-Layer"/>
  <path class="fil0" d="M1024 -0.0011811c565.539,0 1024,458.462 1024,1024 0,565.539 -458.462,1024 -1024,1024 -565.539,0 -1024,-458.462 -1024,-1024 0,-565.539 458.462,-1024 1024,-1024z"/>
  <g style="clip-path:url(#id0)">
   <g id="_466491368">
    <g>
     <polygon id="_3968037041" class="fil1" points="741.425,875.887 1877.31,2011.77 1888.64,2032.06 1899.83,2051.64 1910.92,2070.54 1921.92,2088.79 1932.86,2106.42 1943.79,2123.45 1954.71,2139.92 1965.67,2155.84 1976.7,2171.25 1987.81,2186.18 1999.04,2200.65 2010.42,2214.69 2021.98,2228.33 2033.75,2241.59 2045.75,2254.51 2058.01,2267.11 2070.56,2279.41 934.683,1143.53 922.127,1131.22 909.864,1118.63 897.865,1105.71 886.1,1092.45 874.542,1078.81 863.161,1064.77 851.927,1050.3 840.814,1035.37 829.792,1019.96 818.832,1004.03 807.905,987.57 796.983,970.537 786.035,952.908 775.034,934.657 763.952,915.754 752.758,896.174 "/>
     <polygon id="_396809656" class="fil1" points="847.002,674.692 1982.88,1810.57 1985.35,1813.18 1987.65,1815.88 1989.77,1818.67 1991.71,1821.53 1993.48,1824.47 1995.08,1827.48 1996.51,1830.54 1997.77,1833.67 1998.87,1836.84 1999.79,1840.05 2000.55,1843.3 2001.15,1846.58 2001.58,1849.88 2001.85,1853.2 2001.97,1856.53 2001.92,1859.86 2001.71,1863.19 2001.35,1866.52 2000.83,1869.83 2000.15,1873.12 1999.33,1876.38 1998.35,1879.61 1997.22,1882.8 1995.94,1885.94 1994.51,1889.03 1992.94,1892.07 1991.22,1895.04 1989.35,1897.94 1987.34,1900.76 1985.19,1903.5 1982.9,1906.14 1980.46,1908.7 844.583,772.815 847.016,770.262 849.309,767.613 851.46,764.875 853.47,762.054 855.335,759.154 857.056,756.185 858.631,753.151 860.059,750.058 861.338,746.914 862.468,743.724 863.447,740.495 864.273,737.233 864.948,733.943 865.466,730.634 865.83,727.309 866.036,723.977 866.084,720.643 865.973,717.314 865.701,713.995 865.268,710.693 864.672,707.416 863.911,704.167 862.985,700.954 861.891,697.784 860.631,694.662 859.201,691.595 857.6,688.588 855.829,685.649 853.885,682.784 851.766,679.999 849.472,677.299 "/>
     <polygon id="_396822784" class="fil1" points="1191.69,1559.45 2327.57,2695.33 2300.22,2685.84 2272.17,2674.65 2243.51,2661.82 2214.35,2647.42 2184.79,2631.53 2154.92,2614.22 2124.85,2595.55 2094.68,2575.61 2064.51,2554.46 2034.43,2532.17 2004.55,2508.81 1974.97,2484.45 1945.79,2459.17 809.912,1323.29 839.094,1348.57 868.673,1372.93 898.55,1396.28 928.626,1418.57 958.8,1439.73 988.97,1459.67 1019.04,1478.33 1048.9,1495.65 1078.47,1511.54 1107.63,1525.93 1136.29,1538.76 1164.34,1549.96 "/>
     <polygon id="_396825568" class="fil1" points="844.583,772.815 1980.46,1908.7 1877.31,2011.77 741.425,875.887 "/>
     <polygon id="_396796936" class="fil1" points="1558.21,1385.88 2694.09,2521.76 2703.58,2532.43 2710.81,2543.11 2715.88,2553.77 2718.87,2564.37 2719.88,2574.88 2718.99,2585.25 2716.3,2595.47 2711.89,2605.48 2705.86,2615.27 2698.3,2624.78 2689.3,2633.99 2678.94,2642.86 2667.33,2651.36 2654.54,2659.45 2640.67,2667.1 2625.82,2674.27 2610.07,2680.92 2593.51,2687.03 2576.23,2692.55 2558.32,2697.46 2539.88,2701.71 2521,2705.27 2501.76,2708.11 2482.25,2710.19 2462.57,2711.48 2442.81,2711.94 2423.06,2711.53 2403.4,2710.23 2383.94,2707.99 2364.75,2704.79 2345.93,2700.58 2327.57,2695.33 1191.69,1559.45 1210.05,1564.69 1228.87,1568.9 1248.05,1572.11 1267.52,1574.35 1287.18,1575.65 1306.93,1576.05 1326.69,1575.59 1346.37,1574.31 1365.88,1572.23 1385.12,1569.39 1404,1565.83 1422.44,1561.57 1440.35,1556.67 1457.62,1551.15 1474.18,1545.04 1489.94,1538.39 1504.79,1531.22 1518.66,1523.57 1531.44,1515.48 1543.06,1506.98 1553.42,1498.11 1562.42,1488.9 1569.98,1479.38 1576.01,1469.6 1580.42,1459.59 1583.11,1449.37 1584,1438.99 1582.99,1428.49 1580,1417.89 1574.93,1407.23 1567.7,1396.55 "/>
    </g>
    <path id="_466489208" class="fil1" d="M741.425 875.887c121.736,220.256 214.708,315.297 436.29,436.026l102.999 -102.967c26.6504,-26.6421 70.8508,-29.817 98.1225,-2.5252l179.371 179.457c113.604,113.63 -173.484,235.201 -366.515,173.571 -287.646,-91.8532 -712.358,-487.165 -727.476,-797.603 -5.72599,-117.382 102.914,-367.031 203.342,-266.602l179.444 179.449c27.2929,27.2929 24.2705,71.426 -2.4189,98.1225l-103.159 103.073z"/>
   </g>
  </g>
  <path class="fil2" d="M1024 -0.0011811c565.539,0 1024,458.462 1024,1024 0,565.539 -458.462,1024 -1024,1024 -565.539,0 -1024,-458.462 -1024,-1024 0,-565.539 458.462,-1024 1024,-1024z"/>
  <path class="fil3" d="M464.216 761.846c15.1181,310.439 439.83,705.751 727.476,797.603 193.03,61.63 480.12,-59.941 366.515,-173.571l-179.371 -179.456c-27.2717,-27.2929 -71.4721,-24.1181 -98.1213,2.52402l-103 102.967c-221.582,-120.729 -314.554,-215.769 -436.29,-436.026l103.159 -103.073c26.6894,-26.6965 29.7118,-70.8296 2.4189,-98.1225l-179.443 -179.45c-100.429,-100.428 -209.069,149.222 -203.343,266.603z"/>
  <path class="fil4" d="M464.216 761.846l277.208 114.041 103.159 -103.073c26.6894,-26.6965 29.7118,-70.8296 2.4189,-98.1225l-179.443 -179.45c-100.429,-100.428 -209.069,149.222 -203.343,266.603z"/>
  <path class="fil4" d="M1191.69 1559.45c193.03,61.63 480.12,-59.941 366.515,-173.571l-179.371 -179.456c-27.2717,-27.2929 -71.4721,-24.1181 -98.1213,2.52402l-103 102.967 13.9772 247.536z"/>
 </g>
</svg>
